<svg xmlns="http://www.w3.org/2000/svg" viewBox="0 0 1600 1000" preserveAspectRatio="xMidYMid slice" role="img" aria-label="Delicate floral line-art arch on ivory">
  <defs>
    <linearGradient id="ba-bg" x1="0%" y1="0%" x2="0%" y2="100%">
      <stop offset="0%" stop-color="#fbf8f2"/>
      <stop offset="100%" stop-color="#f2ece0"/>
    </linearGradient>
  </defs>
  <rect width="1600" height="1000" fill="url(#ba-bg)"/>
  <g stroke="#c2a878" stroke-width="2.2" fill="none" opacity="0.7" stroke-linecap="round">
    <path d="M420 1000 C 420 520, 620 300, 800 300 C 980 300, 1180 520, 1180 1000"/>
    <path d="M470 1000 C 470 540, 650 350, 800 350 C 950 350, 1130 540, 1130 1000" opacity="0.5"/>
  </g>
  <g fill="#d9b8a0" opacity="0.75">
    <circle cx="800" cy="300" r="10"/>
    <circle cx="640" cy="360" r="8"/>
    <circle cx="960" cy="360" r="8"/>
    <circle cx="540" cy="500" r="9"/>
    <circle cx="1060" cy="500" r="9"/>
    <circle cx="470" cy="700" r="7"/>
    <circle cx="1130" cy="700" r="7"/>
  </g>
  <g stroke="#a9bf9a" stroke-width="1.8" fill="none" opacity="0.6">
    <path d="M800 300 q -30 -34 -66 -30"/>
    <path d="M800 300 q 30 -34 66 -30"/>
    <path d="M540 500 q -34 -20 -60 4"/>
    <path d="M1060 500 q 34 -20 60 4"/>
  </g>
</svg>
